<?xml version="1.0" standalone="no"?>
<!DOCTYPE svg PUBLIC "-//W3C//DTD SVG 20010904//EN"
 "http://www.w3.org/TR/2001/REC-SVG-20010904/DTD/svg10.dtd">
<svg version="1.0" xmlns="http://www.w3.org/2000/svg"
 width="388.000000pt" height="228.000000pt" viewBox="0 0 388.000000 228.000000"
 preserveAspectRatio="xMidYMid meet">

<g transform="translate(0.000000,228.000000) scale(0.100000,-0.100000)"
fill="#5c4cfc" stroke="none">
<path d="M2237 2142 c-17 -19 -132 -253 -337 -690 -95 -202 -127 -262 -139
-259 -9 3 -56 17 -106 31 -157 47 -253 59 -425 53 -123 -3 -175 -10 -252 -30
-112 -30 -238 -86 -329 -148 -148 -99 -302 -299 -231 -299 10 0 58 14 108 30
49 17 145 43 214 57 109 23 147 26 295 26 271 -2 405 -36 848 -218 293 -120
352 -139 505 -166 142 -24 422 -26 557 -4 444 72 705 290 705 590 0 126 -16
140 -85 79 -84 -74 -173 -144 -182 -144 -6 0 -117 231 -247 513 -130 281 -247
530 -259 552 l-23 40 -300 3 c-280 2 -302 1 -317 -16z m476 -652 c274 -611
261 -580 248 -593 -9 -8 -65 -12 -194 -11 -150 0 -201 4 -287 23 -121 26 -315
88 -329 105 -7 8 46 132 171 401 99 215 187 405 195 424 8 19 18 30 23 25 5
-5 83 -173 173 -374z"/>
<path d="M750 631 c-315 -69 -564 -232 -665 -434 -37 -74 -46 -127 -20 -127 8
0 44 26 80 58 116 103 254 170 432 209 57 13 123 18 248 18 190 -1 213 -5 518
-96 265 -79 364 -100 517 -106 106 -4 154 -2 219 11 115 23 211 63 211 86 0
10 -8 21 -17 24 -136 39 -207 63 -433 148 -541 205 -596 219 -830 224 -144 3
-190 0 -260 -15z"/>
<path d="M3440 471 c-203 -110 -221 -142 -156 -277 48 -100 58 -104 276 -104
99 0 179 4 191 10 11 6 19 21 19 35 0 25 -168 415 -179 415 -3 0 -71 -36 -151
-79z"/>
</g>
</svg>
